<svg xmlns="http://www.w3.org/2000/svg" width="182.246" height="169.208" viewBox="0 0 182.246 169.208"><path d="M183.3,147.981a65.1,65.1,0,0,0-49.609-95.337A65.089,65.089,0,1,0,16.447,108.928l-5.032,17.614A11.39,11.39,0,0,0,25.5,140.625l17.616-5.033a64.952,64.952,0,0,0,22.935,7.228,65.119,65.119,0,0,0,90.589,31.825l17.616,5.033a11.39,11.39,0,0,0,14.08-14.081Zm-12.6-4.155a6.519,6.519,0,0,0-.665,5.115l4.976,17.417L157.6,161.381a6.5,6.5,0,0,0-5.115.665,52.1,52.1,0,0,1-71.873-19.108,65.012,65.012,0,0,0,57.257-76.364A52.09,52.09,0,0,1,170.7,143.826Z" transform="translate(-8.75 -13.135)" fill="#81009e"/></svg>